<svg width="50" height="50" viewBox="0 0 50 50" fill="none" xmlns="http://www.w3.org/2000/svg">
<g clip-path="url(#clip0_2054_5382)">
<path d="M21.7 29.05L19.95 26.85C19.2833 25.85 18.75 24.9167 18.35 24.05C17.95 23.1833 17.6667 22.1167 17.5 20.85C17.2667 20.05 17.1167 19.3 17.05 18.6C16.9833 17.9 16.95 17.1 16.95 16.2C16.9833 15.2667 17.0167 14.1167 17.05 12.75C17.0833 11.4833 17.2833 10.45 17.65 9.65C18.0167 8.81666 18.2667 8.26666 18.4 8C19.1 7.4 19.6667 7.28333 20.1 7.65C20.5667 8.01666 20.9 8.63333 21.1 9.5C21.3333 10.3667 21.4333 11.2833 21.4 12.25C21.5 15.8167 21.7167 18.5167 22.05 20.35C22.4167 22.1833 22.8667 23.3167 23.4 23.75C23.8 23.85 24.15 23.8167 24.45 23.65C24.75 23.45 25.1333 23.0833 25.6 22.55C26.1 21.9833 26.7833 21.25 27.65 20.35C28.5833 19.3833 29.5167 18.3667 30.45 17.3C31.3833 16.2 32.2667 15.15 33.1 14.15C33.9667 13.15 34.7333 12.2833 35.4 11.55C36.1 10.8167 36.65 10.3333 37.05 10.1C37.1833 9.9 37.4167 9.73333 37.75 9.6C38.0833 9.43333 38.4 9.31666 38.7 9.25C39.0333 9.15 39.2 9.1 39.2 9.1C39.4667 9.16667 39.6167 9.38333 39.65 9.75C39.6833 10.0833 39.8167 10.4167 40.05 10.75C40.1167 10.8833 40.2667 11.0833 40.5 11.35C40.7333 11.6167 40.8333 11.8333 40.8 12C40.8 12.1 40.65 12.3333 40.35 12.7C40.05 13.0333 39.7333 13.3667 39.4 13.7C39.0667 14.0333 38.8167 14.2833 38.65 14.45C38.2167 14.8167 37.5333 15.4667 36.6 16.4C35.7 17.3 34.7667 18.2833 33.8 19.35C32.8333 20.3833 32.0167 21.3167 31.35 22.15C29.8833 23.85 28.5667 25.3167 27.4 26.55C26.2667 27.7833 25.5667 28.5167 25.3 28.75C25.2667 28.8167 25.05 28.8667 24.65 28.9C24.25 28.9 23.9667 29.0333 23.8 29.3L21.7 29.05ZM18.9 45.8C18.7667 45.7667 18.4833 45.6167 18.05 45.35C17.65 45.0833 17.2833 44.8333 16.95 44.6C16.7167 44.3333 16.5667 44.05 16.5 43.75C16.4667 43.45 16.5167 43.05 16.65 42.55C16.7833 42.05 16.9667 41.35 17.2 40.45C17.2333 39.6833 17.3833 38.75 17.65 37.65C17.95 36.55 18.3 35.6333 18.7 34.9C18.7 34.5333 18.7833 34.0333 18.95 33.4C19.1167 32.7667 19.3167 32.1167 19.55 31.45C19.8167 30.75 20.05 30.15 20.25 29.65L21.15 27.05L23.15 25.35L25.75 27.15C25.6167 27.35 25.5 27.5833 25.4 27.85C25.3 28.1167 25.1667 28.5667 25 29.2C24.8333 29.8333 24.5833 30.8167 24.25 32.15C23.9833 33.05 23.6833 34.0167 23.35 35.05C23.05 36.0833 22.7667 37.05 22.5 37.95C22.2333 38.85 22 39.5833 21.8 40.15C21.4 41.65 21.0333 42.8333 20.7 43.7C20.4 44.5667 20.1 45.15 19.8 45.45C19.5333 45.7833 19.2333 45.9 18.9 45.8Z" fill="black"/>
</g>
<defs>
<clipPath id="clip0_2054_5382">
<rect width="50" height="50" fill="white"/>
</clipPath>
</defs>
</svg>
